<svg width="22" height="23" viewBox="0 0 22 23" fill="none" xmlns="http://www.w3.org/2000/svg">
<path d="M17.6794 3.27563H4.29253C2.63394 3.27563 1.27612 4.63345 1.27612 6.29204V16.7592C1.27612 18.4178 2.63394 19.7756 4.29253 19.7756H17.6794C19.338 19.7756 20.6959 18.4178 20.6959 16.7592V6.29204C20.6959 4.63345 19.338 3.27563 17.6794 3.27563ZM19.4068 7.07837H16.3367L18.5753 4.81821C18.6914 4.88911 18.7988 4.97505 18.8976 5.07173C19.2263 5.40044 19.4068 5.83228 19.4068 6.29204V7.07837ZM4.94136 7.07837L7.17573 4.5647H8.49273L6.14878 7.07837H4.94136ZM10.2566 4.5647H13.8917L11.4296 7.07837H7.91265L10.2566 4.5647ZM15.6019 4.5647H17.0113L14.5234 7.07837H13.2343L15.6513 4.61196L15.6019 4.5647ZM3.07222 5.07388C3.40093 4.74517 3.83276 4.5647 4.29253 4.5647H5.45054L3.21616 7.07837H2.56304V6.29419C2.56519 5.83442 2.74565 5.40259 3.07222 5.07388ZM18.8976 17.9795C18.5689 18.3083 18.1371 18.4887 17.6773 18.4887H4.29253C3.83491 18.4887 3.40093 18.3083 3.07222 17.9795C2.74351 17.6508 2.56304 17.219 2.56304 16.7592V8.36743H19.4046V16.7592C19.4068 17.2168 19.2263 17.6508 18.8976 17.9795Z" fill="white"/>
<path d="M8.60449 17.0558V9.75757L11.4748 11.414C11.782 11.5923 11.8895 11.9855 11.7111 12.2949C11.5328 12.6021 11.1396 12.7095 10.8303 12.5312L9.89355 11.9898V14.8214L12.3449 13.4056L12.1838 13.3132C11.8766 13.1349 11.7691 12.7417 11.9475 12.4324C12.1258 12.1251 12.5189 12.0177 12.8283 12.196L14.923 13.4056L8.60449 17.0558Z" fill="white"/>
</svg>
