<svg width="63" height="63" viewBox="0 0 63 63" fill="none" xmlns="http://www.w3.org/2000/svg">
<g clip-path="url(#clip0_152_105)">
<path d="M5.56188 28.2644C3.24593 28.2644 3.05258 28.2644 1.70156 28.2644C0.350541 28.2644 -0.807738 30.1943 0.736634 31.7386C2.28113 33.2824 3.05331 34.4405 3.05331 34.4405L5.56188 28.2644Z" fill="#E24864"/>
<path d="M59.2225 37.3362C58.8818 39.04 57.897 44.2075 57.4854 45.4431C56.7132 47.7598 55.906 48.4111 54.4459 49.3512C53.6425 49.8687 52.8273 50.3583 51.9985 50.8351L55.5605 34.1389C57.4911 34.8802 59.5911 35.4908 59.2225 37.3362Z" fill="#E24864"/>
<path d="M55.2946 34.0381C52.2167 32.8192 51.5018 28.9158 48.3453 24.483C45.7714 20.8614 41.1826 17.3984 34.9982 16.0004C33.4633 15.6501 31.8337 15.4295 30.1077 15.3628C28.6819 15.3087 27.3149 15.3222 26.0045 15.3962C22.1504 15.6134 18.7901 16.3619 15.889 17.494C5.19952 21.6632 0.737305 31.0558 0.737305 38.3777C0.737305 43.4386 2.54447 47.6715 5.3611 50.973L5.27117 50.9436C6.334 52.2953 9.86944 57.2464 10.7325 59.5337H19.0735V58.7638C20.4316 59.0329 21.7922 59.1897 23.1273 59.2239C24.0922 59.2502 25.0531 59.2367 26.0045 59.1968C28.3626 59.098 30.6563 58.8171 32.777 58.4342V59.5336H41.6657C42.2222 58.1499 42.9953 56.3316 43.7914 55.0204C46.776 53.6073 49.4629 52.2929 51.9993 50.8368L55.5604 34.1389C55.4712 34.1041 55.3814 34.0723 55.2946 34.0381Z" fill="#F0768C"/>
<path d="M40.8854 61.464C40.4993 62.2363 39.9198 62.8151 38.1826 62.8151C36.4455 62.8151 35.4806 62.8151 34.3222 62.8151C33.1647 62.8151 32.7786 61.6566 32.7786 60.3058C32.7786 60.0996 32.7786 59.8345 32.7786 59.5334H41.6656C41.2812 60.4879 40.9994 61.2363 40.8854 61.464Z" fill="#E24864"/>
<path d="M38.1829 61.368C39.1025 61.368 39.3557 61.2073 39.5005 60.9819H34.2764C34.3083 61.1706 34.3503 61.2956 34.3838 61.368H38.1829Z" fill="#E24864"/>
<path d="M19.0738 60.3058C19.0738 61.6568 18.7115 62.8151 17.6248 62.8151C16.538 62.8151 15.6321 62.8151 14.0018 62.8151C12.372 62.8151 11.8284 62.2363 11.4661 61.464C11.3586 61.2363 11.0943 60.4879 10.7336 59.5334H19.0738C19.0738 59.8344 19.0738 60.0995 19.0738 60.3058Z" fill="#E24864"/>
<path d="M17.4853 61.368C17.5164 61.2868 17.5522 61.1611 17.5801 60.9819H12.8416C12.9714 61.2183 13.1664 61.368 14.0015 61.368H17.4853Z" fill="#E24864"/>
<path d="M40.8131 50.703C43.5981 50.703 45.8558 48.4453 45.8558 45.6603C45.8558 42.8753 43.5981 40.6177 40.8131 40.6177C38.0282 40.6177 35.7705 42.8753 35.7705 45.6603C35.7705 48.4453 38.0282 50.703 40.8131 50.703Z" fill="#FFC0CC"/>
<path d="M42.5264 36.8054C42.5264 38.8044 44.1464 40.4246 46.1456 40.4246C48.1438 40.4246 49.7647 38.8046 49.7647 36.8054C49.7647 34.8072 48.1438 33.1863 46.1456 33.1863C44.1466 33.1863 42.5264 34.8071 42.5264 36.8054Z" fill="#F0F0F0"/>
<path d="M43.3362 35.7926C43.3362 37.1038 44.3997 38.1665 45.711 38.1665C47.0223 38.1665 48.0857 37.1037 48.0857 35.7926C48.0857 34.4806 47.0222 33.4177 45.711 33.4177C44.3999 33.4177 43.3362 34.4806 43.3362 35.7926Z" fill="#334574"/>
<path d="M15.8892 17.494V18.9994H16.0101C19.3985 17.6127 23.4889 16.7758 28.3706 16.7758C28.9239 16.7758 29.4884 16.787 30.0529 16.8109C31.7526 16.8746 33.4085 17.1055 34.9984 17.4877V16.0005C33.4634 15.6502 31.8338 15.4296 30.1079 15.3627C24.4881 15.1486 19.7773 15.9765 15.8892 17.494Z" fill="#CC4C63"/>
<path d="M8.23926 32.4257L7.75281 32.2904L8.23289 32.4472L8.23926 32.4257L7.75281 32.2904L8.23289 32.4472L8.12382 32.4114L8.23203 32.4496L8.23289 32.4472L8.12382 32.4114L8.23203 32.4496C8.23289 32.4472 8.25031 32.4002 8.28294 32.3317C8.34343 32.2021 8.45176 31.9958 8.59751 31.7506C8.85466 31.3191 9.22799 30.7642 9.69138 30.1695C10.3871 29.2762 11.29 28.2914 12.3154 27.4467C13.3399 26.5989 14.4848 25.8983 15.6496 25.5138C16.5795 25.2049 17.0833 24.2002 16.7744 23.2695C16.4655 22.3388 15.4608 21.835 14.531 22.1439C13.1083 22.6167 11.8369 23.3523 10.7159 24.1892C9.03537 25.447 7.68509 26.9358 6.69624 28.2406C6.20194 28.8951 5.7999 29.5025 5.49098 30.0287C5.33725 30.2931 5.20598 30.5359 5.09605 30.7652C5.04121 30.8806 4.99103 30.992 4.94478 31.1067C4.89938 31.2222 4.85718 31.3383 4.81816 31.4777C4.55623 32.4219 5.10954 33.4003 6.05533 33.6623C6.99977 33.924 7.97733 33.3699 8.23926 32.4257Z" fill="#FFC0CC"/>
<path d="M37.1923 20.9435C38.1102 19.5145 39.2121 16.9742 40.4962 16.0211C41.7811 15.0691 44.1663 16.0211 44.1663 17.4509C44.1663 18.88 44.1663 21.4204 44.1663 22.8493C44.1663 24.2784 40.1292 25.0722 37.9271 24.2784C35.7244 23.4847 37.1923 20.9435 37.1923 20.9435Z" fill="#E24864"/>
<path d="M36.1385 10.1336C36.1385 12.2585 35.4809 14.2337 34.3607 15.8633C34.0479 16.3187 33.6975 16.7469 33.3155 17.1466C32.2502 16.9634 31.1611 16.8504 30.0521 16.8107C29.9885 16.8075 29.9248 16.8043 29.8611 16.8043C29.3603 16.7843 28.8596 16.7756 28.37 16.7756C27.5595 16.7756 26.7721 16.7987 26.0047 16.8449L22.8489 17.1641C21.6562 17.3401 20.5235 17.5717 19.4463 17.8528C19.0267 17.497 18.6358 17.1028 18.2767 16.6832C16.7744 14.9142 15.8708 12.6294 15.8708 10.1335C15.8708 4.54564 20.4167 -0.000244141 26.0047 -0.000244141C31.5927 -0.000244141 36.1385 4.54576 36.1385 10.1336Z" fill="#FC97B2"/>
<path d="M33.7119 10.1338C33.7119 12.2014 32.8982 14.0746 31.5727 15.4582C31.0712 15.9853 30.4955 16.4398 29.8611 16.8045C29.3603 16.7845 28.8596 16.7757 28.37 16.7757C27.5595 16.7757 26.7721 16.7988 26.0047 16.8451L22.8489 17.1643C22.1857 16.8681 21.572 16.4804 21.0242 16.0147C20.9406 15.9447 20.8594 15.873 20.7782 15.7966C20.7726 15.7918 20.767 15.7856 20.7607 15.7799C20.3873 15.4321 20.0458 15.0498 19.748 14.6327C19.6787 14.5403 19.6143 14.4416 19.5506 14.3461C19.4582 14.2076 19.3715 14.0627 19.2903 13.9178C19.244 13.8366 19.1979 13.753 19.1573 13.6695C19.1397 13.6408 19.1222 13.6081 19.1111 13.5794C19.0649 13.4895 19.0211 13.4003 18.9806 13.3096C18.9312 13.2029 18.885 13.0961 18.8444 12.9863C18.8157 12.9194 18.7895 12.8494 18.7664 12.7826C18.7226 12.6647 18.682 12.5453 18.6446 12.4243C18.6238 12.3662 18.6071 12.3081 18.5928 12.2475C18.5752 12.1926 18.5609 12.1377 18.5458 12.0796C18.5435 12.0739 18.5403 12.0676 18.5403 12.0596C18.5171 11.9784 18.4997 11.8971 18.4821 11.8129C18.4678 11.7588 18.4566 11.6997 18.4479 11.6424C18.4327 11.5867 18.4215 11.5326 18.416 11.4745V11.472C18.4041 11.4052 18.3929 11.3415 18.3841 11.2746C18.3722 11.2108 18.3635 11.1472 18.3578 11.0835C18.3459 11.0023 18.3371 10.921 18.3316 10.84C18.3293 10.8288 18.3261 10.8144 18.3293 10.8001C18.3172 10.7157 18.3117 10.6346 18.3085 10.5502C18.2997 10.4117 18.2974 10.273 18.2974 10.1338C18.2974 5.87779 21.7485 2.42651 26.0046 2.42651C26.144 2.42651 26.2825 2.4297 26.4218 2.43768C26.5054 2.44087 26.5866 2.44725 26.6702 2.45841C26.6845 2.45522 26.6996 2.45841 26.7108 2.4616C26.7777 2.46639 26.8445 2.47277 26.9107 2.48148C26.9227 2.48148 26.9314 2.48148 26.9426 2.48393C27.0151 2.4935 27.0874 2.50135 27.1598 2.51338C27.1685 2.51338 27.1797 2.51571 27.1885 2.5189C27.2203 2.52209 27.2498 2.52773 27.2817 2.53325C27.2905 2.53325 27.296 2.53325 27.3047 2.53644C27.3709 2.54515 27.4353 2.55951 27.4989 2.57472C27.5619 2.58269 27.6232 2.59692 27.6837 2.61128C27.7681 2.62882 27.8493 2.64637 27.9304 2.67017C27.9384 2.67017 27.9448 2.6725 27.9503 2.67483C28.0085 2.69004 28.0634 2.7044 28.1184 2.72108C28.1789 2.73617 28.237 2.75372 28.295 2.77359C28.416 2.81187 28.5355 2.85162 28.654 2.89542C28.7202 2.91861 28.7902 2.94486 28.8563 2.97345C28.975 3.02044 29.0936 3.06902 29.2097 3.12398C29.2902 3.15907 29.3714 3.19968 29.4501 3.24029C29.4787 3.25145 29.5106 3.26888 29.5392 3.28642C29.6236 3.32703 29.7072 3.37328 29.7884 3.41941C29.8235 3.43696 29.8552 3.45683 29.8895 3.47756C29.9476 3.50946 30.0026 3.54443 30.0576 3.57952C30.0815 3.59387 30.1045 3.60823 30.1276 3.62565C30.1595 3.64564 30.1937 3.66552 30.2255 3.68625C30.2693 3.71484 30.3124 3.74355 30.356 3.77532C30.3848 3.79287 30.411 3.81041 30.4373 3.83421C30.4978 3.87077 30.5591 3.91776 30.6196 3.96402C30.6538 3.98708 30.6889 4.01579 30.7239 4.04204C30.8656 4.15271 31.0049 4.26815 31.1378 4.38667C31.2277 4.4647 31.3114 4.54592 31.3957 4.63032C31.4824 4.71387 31.5661 4.79742 31.6473 4.88747C31.656 4.89299 31.6617 4.90269 31.6672 4.90735C32.9365 6.2829 33.7119 8.11571 33.7119 10.1338Z" fill="#EBD59D"/>
<path d="M18.734 10.5708C18.734 6.31394 22.1852 2.86279 26.442 2.86279C28.4586 2.86279 30.2945 3.6389 31.6677 4.90723C30.2601 3.38187 28.2444 2.42651 26.0049 2.42651C21.748 2.42651 18.2976 5.87694 18.2976 10.1338C18.2976 12.3733 19.253 14.3891 20.7783 15.7966C19.5101 14.4232 18.734 12.5881 18.734 10.5708Z" fill="#FF638D"/>
<path d="M29.2759 6.91675C29.2417 6.88252 29.2043 6.84744 29.1692 6.81321C29.1605 6.80364 29.1549 6.79885 29.1493 6.79247C28.596 6.3005 27.8548 5.99317 27.0523 5.99636H24.1401C23.8647 5.99636 23.5955 6.10629 23.399 6.30369C23.2048 6.49717 23.0918 6.76708 23.0918 7.0441V14.7315C23.0918 14.9607 23.1642 15.1749 23.2915 15.346C23.3672 15.4528 23.4627 15.5418 23.5725 15.612C23.7349 15.7186 23.9315 15.78 24.1401 15.78C24.4292 15.78 24.6871 15.6645 24.8782 15.4758L24.8814 15.4734C25.0726 15.2823 25.1879 15.0213 25.1879 14.7315V12.285H27.0523C27.9185 12.285 28.7114 11.9324 29.2759 11.3639C29.8436 10.7971 30.197 10.0065 30.197 9.14117C30.197 8.27489 29.8436 7.48197 29.2759 6.91675ZM27.7935 8.39905C27.9846 8.59019 28.1008 8.84808 28.1008 9.14105C28.1008 9.43329 27.9845 9.68799 27.7935 9.88146C27.6 10.0725 27.3453 10.1887 27.0523 10.1887H25.1879V8.09258H27.0523C27.2872 8.09258 27.4989 8.16827 27.6725 8.29881C27.7156 8.3274 27.7561 8.36163 27.7935 8.39905Z" fill="#FF638D"/>
<path d="M29.1692 6.81314C29.1605 6.80357 29.155 6.79878 29.1494 6.7924C29.1144 6.75498 29.0793 6.71756 29.0451 6.68247C28.4774 6.11493 27.6838 5.76221 26.8215 5.76221H23.9085C23.633 5.76221 23.3607 5.87446 23.1673 6.06868C22.9699 6.26534 22.8601 6.53439 22.8601 6.80995V14.4973C22.8601 14.8444 23.0281 15.1549 23.2916 15.3459C23.4659 15.4733 23.6768 15.5481 23.9086 15.5481C24.4874 15.5481 24.9563 15.076 24.9563 14.4973V12.0532H26.8216C27.6838 12.0532 28.4775 11.6997 29.0452 11.1329C29.612 10.5652 29.9655 9.77159 29.9655 8.90616C29.9653 8.10686 29.6612 7.36878 29.1692 6.81314ZM24.9562 7.85768H26.8215C27.1138 7.86087 27.3685 7.97387 27.5619 8.16489C27.6025 8.2055 27.6407 8.25163 27.6726 8.29862C27.7967 8.46903 27.8693 8.6776 27.8693 8.90604C27.8693 9.20147 27.7538 9.45616 27.562 9.65037C27.3686 9.84139 27.1139 9.95451 26.8216 9.95684H26.0048L25.1881 9.95451H24.9564V7.85768H24.9562Z" fill="#FC97B2"/>
<path opacity="0.22" d="M26.0047 0V16.845L22.8489 17.1643C21.6562 17.3402 20.5235 17.5718 19.4463 17.8529C19.0267 17.4971 18.6358 17.1029 18.2767 16.6833C16.7744 14.9143 15.8708 12.6295 15.8708 10.1336C15.8708 4.54589 20.4167 0 26.0047 0Z" fill="#F0F0F0"/>
</g>
<defs>
<clipPath id="clip0_152_105">
<rect width="62.8153" height="62.8153" fill="white"/>
</clipPath>
</defs>
</svg>
