<svg width="66" height="66" viewBox="0 0 66 66" fill="none" xmlns="http://www.w3.org/2000/svg">
<g clip-path="url(#clip0_174_199)">
<path d="M59.4807 0H6.51943C5.30887 0 4.32739 0.981207 4.32739 2.19217V60.2865C4.32739 61.4971 5.30873 62.4783 6.51943 62.4783H59.4807C60.6912 62.4783 61.6727 61.4971 61.6727 60.2865V2.19217C61.6727 0.981207 60.6912 0 59.4807 0Z" fill="#FCD462"/>
<path d="M58.0729 46.4495H7.92798V60.0756H58.0729V46.4495Z" fill="#DC8744"/>
<path d="M58.0729 4.80054H7.92798V18.4266H58.0729V4.80054Z" fill="#DC8744"/>
<path d="M58.0729 25.624H7.92798V39.2488H58.0729V25.624Z" fill="#DC8744"/>
<path d="M18.0704 62.4758H8.8562V66.0001H18.0704V62.4758Z" fill="#DC8744"/>
<path d="M57.1476 62.4758H47.9333V66.0001H57.1476V62.4758Z" fill="#DC8744"/>
<path d="M58.0729 45.252H7.92798V58.8781H58.0729V45.252Z" fill="#F6C358"/>
<path d="M58.0729 3.60059H7.92798V17.2267H58.0729V3.60059Z" fill="#F6C358"/>
<path d="M58.0729 24.4265H7.92798V38.0513H58.0729V24.4265Z" fill="#F6C358"/>
<path d="M24.8062 10.4142C24.8062 10.8832 25.1866 11.2638 25.6559 11.2638H27.1125V9.56445H25.6559C25.1866 9.56445 24.8062 9.94488 24.8062 10.4142Z" fill="#EBF0F3"/>
<path d="M40.3444 9.56445H38.8877V11.2638H40.3444C40.8137 11.2638 41.1941 10.8832 41.1941 10.4142C41.1941 9.94488 40.8137 9.56445 40.3444 9.56445Z" fill="#EBF0F3"/>
<path d="M27.1125 11.2637C31.8123 11.705 34.1877 11.7071 38.8878 11.2637C38.8878 10.5831 38.8878 10.2439 38.8878 9.56431C34.1877 9.12037 31.8123 9.11996 27.1125 9.56431C27.1125 10.2439 27.1125 10.5831 27.1125 11.2637Z" fill="#64798A"/>
<path d="M24.8062 31.2401C24.8062 31.7092 25.1866 32.0897 25.6559 32.0897H27.1125V30.3904H25.6559C25.1866 30.3904 24.8062 30.7708 24.8062 31.2401Z" fill="#EBF0F3"/>
<path d="M40.3444 30.3904H38.8877V32.0897H40.3444C40.8137 32.0897 41.1941 31.7092 41.1941 31.2401C41.1941 30.7708 40.8137 30.3904 40.3444 30.3904Z" fill="#EBF0F3"/>
<path d="M27.1125 32.0896C31.8123 32.531 34.1877 32.533 38.8878 32.0896C38.8878 31.409 38.8878 31.0698 38.8878 30.3902C34.1877 29.9463 31.8123 29.9459 27.1125 30.3902C27.1125 31.0698 27.1125 31.409 27.1125 32.0896Z" fill="#64798A"/>
<path d="M24.8062 52.0658C24.8062 52.5349 25.1866 52.9156 25.6559 52.9156H27.1125V51.2161H25.6559C25.1866 51.2161 24.8062 51.5965 24.8062 52.0658Z" fill="#EBF0F3"/>
<path d="M40.3444 51.2161H38.8877V52.9156H40.3444C40.8137 52.9156 41.1941 52.5349 41.1941 52.0658C41.1941 51.5965 40.8137 51.2161 40.3444 51.2161Z" fill="#EBF0F3"/>
<path d="M27.1125 52.9152C31.8123 53.3564 34.1877 53.3584 38.8878 52.9152C38.8878 52.2345 38.8878 51.8953 38.8878 51.2157C34.1877 50.7717 31.8123 50.7713 27.1125 51.2157C27.1125 51.8951 27.1125 52.2345 27.1125 52.9152Z" fill="#64798A"/>
</g>
<defs>
<clipPath id="clip0_174_199">
<rect width="66" height="66" fill="white"/>
</clipPath>
</defs>
</svg>
