<svg width="57" height="59" viewBox="0 0 57 59" fill="none" xmlns="http://www.w3.org/2000/svg">
<g clip-path="url(#clip0_212_2)">
<path fill-rule="evenodd" clip-rule="evenodd" d="M41.3775 29.1093L54.2937 15.9074C57.8573 12.2687 57.8573 6.34439 54.2937 2.70572C50.7255 -0.95627 44.9434 -0.95627 41.3775 2.70572L28.4636 15.9074L15.5497 2.70572C11.986 -0.95627 6.20394 -0.95627 2.63574 2.70572C-0.927897 6.34439 -0.927897 12.2687 2.63574 15.9074L15.5497 29.1093L2.63574 42.3346C-0.927897 45.9732 -0.927897 51.8978 2.63574 55.5365C6.20394 59.1985 11.986 59.1985 15.5497 55.5365L28.4636 42.3346L41.3775 55.5365C44.9434 59.1985 50.7255 59.1985 54.2937 55.5365C57.8573 51.8978 57.8573 45.9732 54.2937 42.3346L41.3775 29.1093Z" fill="#FF0000"/>
</g>
<defs>
<clipPath id="clip0_212_2">
<rect width="57" height="58.312" fill="white"/>
</clipPath>
</defs>
</svg>
