<svg width="68" height="68" viewBox="0 0 68 68" fill="none" xmlns="http://www.w3.org/2000/svg">
<rect width="68" height="68" rx="8.26168" fill="#19182B"/>
<path d="M29.443 33.9361L45.403 28.201V37.7361C44.4547 37.1907 43.327 36.8743 42.1171 36.8743C38.7469 36.8743 36.0148 39.3287 36.0148 42.3563C36.0148 45.3838 38.7469 47.8382 42.1171 47.8382C45.4874 47.8382 48.2196 45.3838 48.2196 42.3563V26.2414C48.2196 24.3138 48.2196 22.6971 48.0686 21.409C48.0473 21.2269 48.022 21.046 47.9941 20.8771C47.8487 19.9971 47.5917 19.1761 47.0957 18.4906C46.8475 18.1479 46.5397 17.839 46.1562 17.5734C46.0843 17.5237 46.0096 17.4754 45.9323 17.4287L45.9168 17.4194C44.5889 16.6255 43.0961 16.6823 41.5583 17.0343C40.071 17.3748 38.2271 18.0681 35.9661 18.9183L32.0341 20.3967C30.9744 20.7951 30.0764 21.1327 29.3716 21.4823C28.6218 21.8544 27.9759 22.2931 27.4915 22.947C27.0071 23.6008 26.8059 24.3055 26.7134 25.0705C26.6265 25.7895 26.6265 26.6639 26.6266 27.696V41.1096C25.6781 40.5642 24.5505 40.2478 23.3407 40.2478C19.9704 40.2478 17.2383 42.7022 17.2383 45.7298C17.2383 48.7574 19.9704 51.2118 23.3407 51.2118C26.7109 51.2118 29.443 48.7574 29.443 45.7298V33.9361Z" fill="white"/>
</svg>
