<svg width="70" height="70" viewBox="0 0 70 70" fill="none" xmlns="http://www.w3.org/2000/svg">
<path fill-rule="evenodd" clip-rule="evenodd" d="M33.9395 0C15.1002 0.560535 0 16.0089 0 34.984C0 53.9592 15.1002 69.4076 33.9395 69.9681V0Z" fill="#F9ABC0"/>
<path fill-rule="evenodd" clip-rule="evenodd" d="M33.9394 0.000244141C53.9563 0.561017 70.0002 16.0164 70.0002 35.0001C70.0002 53.9839 53.9563 69.4393 33.9394 70V0.000244141Z" fill="#FC97B2"/>
<circle cx="35.0001" cy="35.0001" r="26.5153" fill="#ECDBAF"/>
<path fill-rule="evenodd" clip-rule="evenodd" d="M33.9394 8.48438C49.2465 8.90929 61.5154 20.6179 61.5154 34.9997C61.5154 49.3814 49.2465 61.09 33.9394 61.5149V8.48438Z" fill="#EBD59D"/>
<path d="M69.8103 34.9053C69.8103 42.2245 67.5452 49.0276 63.687 54.6408C62.6095 56.2094 61.4025 57.6842 60.0866 59.061C56.4173 58.4301 52.6661 58.0409 48.8464 57.904C48.627 57.893 48.4077 57.882 48.1884 57.882C46.4634 57.8131 44.7388 57.7831 43.0523 57.7831C40.2607 57.7831 37.5486 57.8626 34.9053 58.0219L24.0352 59.1214C19.9273 59.7274 16.0256 60.5253 12.3153 61.4934C10.8701 60.2679 9.52375 58.9102 8.28685 57.4649C3.11232 51.3717 0 43.5019 0 34.9049C0 15.658 15.658 0 34.9053 0C54.1527 0 69.8103 15.6584 69.8103 34.9053Z" fill="#FC97B2"/>
<path d="M61.4526 34.9057C61.4526 42.0276 58.65 48.4797 54.0844 53.2456C52.3568 55.061 50.374 56.6267 48.1888 57.8826C46.4638 57.8137 44.7393 57.7837 43.0527 57.7837C40.2611 57.7837 37.5489 57.8632 34.9057 58.0225L24.0355 59.1221C21.751 58.102 19.6372 56.7666 17.7503 55.1624C17.4625 54.9211 17.1828 54.6744 16.903 54.4111C16.8836 54.3946 16.8646 54.373 16.8426 54.3536C15.5567 53.1556 14.3802 51.8388 13.3546 50.402C13.1158 50.0838 12.894 49.744 12.6746 49.4148C12.3564 48.9377 12.0577 48.4387 11.7779 47.9396C11.6186 47.6598 11.4597 47.3721 11.3198 47.0843C11.2594 46.9854 11.199 46.873 11.1609 46.7741C11.0016 46.4643 10.8507 46.1571 10.7113 45.8448C10.541 45.4772 10.3821 45.1095 10.2422 44.7313C10.1433 44.5006 10.0529 44.2597 9.97346 44.0294C9.8226 43.6233 9.68271 43.2121 9.55383 42.7954C9.48241 42.5951 9.42494 42.3952 9.3755 42.1865C9.31507 41.9972 9.26562 41.8083 9.21365 41.608C9.20562 41.5885 9.19463 41.5665 9.19463 41.5391C9.11476 41.2593 9.05475 40.9796 8.99432 40.6893C8.94488 40.5029 8.90642 40.2996 8.87642 40.1023C8.82402 39.9104 8.78557 39.7241 8.76655 39.5238V39.5153C8.72556 39.285 8.6871 39.0657 8.65667 38.8354C8.61568 38.6156 8.58568 38.3963 8.56624 38.177C8.52525 37.8972 8.49482 37.6175 8.47581 37.3381C8.46778 37.2997 8.45679 37.2502 8.46778 37.2008C8.42637 36.9101 8.40735 36.6307 8.39636 36.34C8.36593 35.8629 8.35791 35.3854 8.35791 34.9057C8.35791 20.2462 20.2453 8.3584 34.9052 8.3584C35.3853 8.3584 35.8624 8.36939 36.342 8.39685C36.6302 8.40784 36.91 8.42982 37.1978 8.46827C37.2472 8.45728 37.2992 8.46827 37.3377 8.47926C37.568 8.49574 37.7983 8.51771 38.0261 8.54772C38.0675 8.54772 38.0975 8.54772 38.1359 8.55617C38.3857 8.58913 38.635 8.61618 38.8843 8.65759C38.9143 8.65759 38.9528 8.66562 38.9832 8.67661C39.0927 8.68759 39.1941 8.70703 39.304 8.72605C39.3344 8.72605 39.3534 8.72605 39.3834 8.73704C39.6112 8.76704 39.833 8.81648 40.0524 8.86888C40.2691 8.89635 40.4804 8.94537 40.6888 8.99481C40.9795 9.05524 41.2593 9.11567 41.5386 9.19766C41.5661 9.19766 41.588 9.20569 41.6071 9.21371C41.8074 9.26612 41.9967 9.31556 42.186 9.37303C42.3943 9.42501 42.5946 9.48544 42.7945 9.5539C43.2112 9.68574 43.6228 9.82266 44.031 9.97353C44.2588 10.0534 44.5001 10.1438 44.7279 10.2423C45.1365 10.4041 45.5451 10.5715 45.9449 10.7608C46.2221 10.8817 46.5019 11.0215 46.7732 11.1614C46.8716 11.1999 46.9815 11.2599 47.08 11.3203C47.3707 11.4602 47.6585 11.6195 47.9382 11.7784C48.0591 11.8388 48.1686 11.9073 48.2865 11.9787C48.4868 12.0886 48.6761 12.209 48.8654 12.3299C48.9478 12.3793 49.0273 12.4288 49.1067 12.4888C49.2166 12.5576 49.3345 12.6261 49.4439 12.6975C49.5948 12.796 49.7431 12.8949 49.8936 13.0043C49.9924 13.0647 50.0829 13.1252 50.1733 13.2072C50.3816 13.3331 50.5929 13.4949 50.8013 13.6543C50.9192 13.7337 51.04 13.8326 51.1605 13.923C51.6486 14.3042 52.1286 14.7019 52.5863 15.1101C52.896 15.3788 53.1842 15.6586 53.4746 15.9493C53.7733 16.2371 54.0615 16.5249 54.3413 16.8351C54.3713 16.8541 54.3907 16.8875 54.4097 16.9035C58.7818 21.6416 61.4526 27.9546 61.4526 34.9057Z" fill="#EBD59D"/>
<path d="M9.86142 36.411C9.86142 21.7485 21.7488 9.86112 36.4113 9.86112C43.3574 9.86112 49.681 12.5344 54.411 16.9031C49.5626 11.6491 42.6195 8.3584 34.9056 8.3584C20.2431 8.3584 8.35828 20.2432 8.35828 34.9057C8.35828 42.6196 11.649 49.5632 16.903 54.4111C12.5347 49.6807 9.86142 43.3596 9.86142 36.411Z" fill="#FF638D"/>
<path d="M46.1729 23.8246C46.055 23.7067 45.9261 23.5859 45.8052 23.468C45.7752 23.435 45.7562 23.4185 45.7368 23.3965C43.8309 21.702 41.278 20.6434 38.5139 20.6544H28.483C27.5342 20.6544 26.6071 21.033 25.9301 21.713C25.2611 22.3794 24.8719 23.3091 24.8719 24.2633V50.7422C24.8719 51.5315 25.1213 52.2694 25.5599 52.8589C25.8207 53.2265 26.1494 53.5333 26.5276 53.7751C27.0871 54.1423 27.7641 54.3536 28.483 54.3536C29.4786 54.3536 30.3668 53.9559 31.0252 53.306L31.0362 53.2975C31.6946 52.6396 32.0918 51.7403 32.0918 50.7422V42.3153H38.5139C41.4974 42.3153 44.2285 41.1008 46.1729 39.1426C48.1282 37.1902 49.3457 34.4671 49.3457 31.4866C49.3457 28.5027 48.1282 25.7715 46.1729 23.8246ZM41.0667 28.9303C41.7251 29.5887 42.1253 30.477 42.1253 31.4861C42.1253 32.4927 41.7247 33.37 41.0667 34.0364C40.4003 34.6944 39.523 35.0946 38.5139 35.0946H32.0918V27.8747H38.5139C39.3227 27.8747 40.0521 28.1354 40.6501 28.5851C40.7984 28.6835 40.9379 28.8014 41.0667 28.9303Z" fill="#FF638D"/>
<path d="M45.8056 23.468C45.7756 23.4351 45.7566 23.4186 45.7372 23.3966C45.6167 23.2677 45.4959 23.1388 45.378 23.018C43.4227 21.0631 40.689 19.8481 37.719 19.8481H27.6851C26.7364 19.8481 25.7983 20.2348 25.1323 20.9038C24.4523 21.5812 24.0741 22.5079 24.0741 23.457V49.9359C24.0741 51.1314 24.6526 52.201 25.5603 52.859C26.1608 53.2976 26.8873 53.5554 27.6855 53.5554C29.6793 53.5554 31.2944 51.9293 31.2944 49.9359V41.5171H37.7194C40.6889 41.5171 43.4231 40.2997 45.3784 38.3473C47.3308 36.392 48.5482 33.6583 48.5482 30.6774C48.5478 27.9242 47.5002 25.3819 45.8056 23.468ZM31.294 27.0659H37.719C38.7256 27.0769 39.6029 27.4661 40.2693 28.1241C40.4092 28.264 40.5406 28.4229 40.6505 28.5847C41.0782 29.1717 41.3279 29.8901 41.3279 30.6769C41.3279 31.6945 40.9302 32.5718 40.2697 33.2408C39.6033 33.8987 38.726 34.2884 37.7194 34.2964H34.9058L32.0927 34.2884H31.2948V27.0659H31.294Z" fill="#FC97B2"/>
<path opacity="0.22" d="M34.9053 0.000732422V58.0222L24.0352 59.1218C19.9273 59.7277 16.0256 60.5256 12.3153 61.4937C10.8701 60.2682 9.52375 58.9105 8.28685 57.4652C3.11232 51.372 0 43.5022 0 34.9052C0 15.6587 15.658 0.000732422 34.9053 0.000732422Z" fill="#F0F0F0"/>
</svg>
