<svg width="287" height="287" viewBox="0 0 287 287" fill="none" xmlns="http://www.w3.org/2000/svg">
<path d="M241.708 142.603C238.569 141.707 235.878 139.464 234.085 136.774C232.291 134.083 230.946 130.496 230.946 127.357V122.424C231.394 120.63 231.842 118.836 232.291 117.491C233.636 114.352 235.43 111.213 238.121 108.971L239.017 108.074L239.466 107.625L239.914 107.177C240.811 106.728 241.26 106.28 242.156 105.832C243.502 104.935 245.296 104.038 246.641 103.141C249.78 101.796 253.367 100.899 256.955 100.899C260.542 100.899 264.13 101.796 267.269 103.589C269.063 104.486 270.408 105.832 271.753 107.625C273.099 109.419 273.996 111.213 273.996 113.455C273.996 115.697 273.547 117.939 272.65 119.285C271.753 121.078 270.408 122.424 269.063 123.769C266.372 126.011 262.785 127.805 259.197 128.253C257.403 128.702 255.61 128.702 253.816 128.253C252.022 127.805 250.228 126.908 248.883 125.563C247.538 123.321 246.641 121.078 246.641 119.285C246.641 117.491 247.089 115.697 247.986 113.903C249.331 110.764 251.574 108.074 253.816 105.832C256.058 103.589 258.749 101.347 261.439 99.5534C266.821 95.9659 272.202 92.8269 278.031 90.1362C272.65 93.7237 267.717 97.3112 262.785 101.347C260.542 103.141 258.3 105.383 256.058 107.625C254.264 109.867 252.471 112.558 251.125 114.8C250.677 116.146 250.228 117.491 250.228 118.836C250.228 120.182 250.677 121.078 251.574 121.527C252.919 122.872 256.058 123.321 258.3 122.872C260.991 122.424 263.233 121.078 265.475 119.285C267.269 117.491 268.614 115.249 268.166 113.007C268.166 111.213 266.372 108.971 264.13 108.074C261.888 106.728 259.197 106.28 256.507 106.28C251.125 106.28 245.744 108.522 241.26 112.11C239.017 113.903 237.224 116.146 235.878 118.836C235.43 120.182 234.533 121.527 234.533 122.872C234.085 124.217 234.085 125.563 233.636 126.908C233.636 129.599 234.085 132.738 235.43 135.428C237.224 138.119 239.466 140.81 241.708 142.603Z" fill="#A5627A"/>
<path d="M158.747 226.013V159.195C158.747 143.052 167.715 134.98 179.375 134.98C190.586 134.98 200.003 143.052 200.003 159.195V226.013C199.554 242.156 158.747 242.156 158.747 226.013Z" fill="#EA83A3"/>
<path d="M179.375 250.676C179.375 237.223 183.411 250.676 200.003 250.676V226.461H159.196C158.747 242.156 168.164 250.676 179.375 250.676Z" fill="#A5627A"/>
<path d="M219.734 236.775V169.958C219.734 153.814 228.703 145.742 240.362 145.742C251.573 145.742 260.991 153.814 260.991 169.958V236.775C260.542 252.919 219.734 252.919 219.734 236.775Z" fill="#EA83A3"/>
<path d="M240.362 260.99C240.362 247.537 244.398 260.99 260.991 260.99V236.775H219.734C219.734 252.918 228.703 260.99 240.362 260.99Z" fill="#A5627A"/>
<path d="M264.579 171.752C264.579 214.353 252.471 240.363 159.196 240.363H73.9932V107.177H195.071C228.256 107.177 264.579 117.042 264.579 171.752Z" fill="#EA83A3"/>
<path d="M35.4265 173.546C35.4265 130.944 41.2562 104.935 86.9968 104.935H128.702V238.121H69.5078C52.9156 238.121 35.4265 228.255 35.4265 173.546Z" fill="#EA83A3"/>
<path d="M131.841 247.986V162.783C131.841 142.155 143.5 131.841 157.85 131.841C172.2 131.841 183.86 142.155 183.86 162.783V247.986C183.86 268.614 131.841 268.614 131.841 247.986Z" fill="#EA83A3"/>
<path d="M157.85 278.928C157.85 261.887 162.783 278.928 183.86 278.928V247.986H131.841C131.841 268.614 143.5 278.928 157.85 278.928Z" fill="#A5627A"/>
<path d="M97.3112 247.986V162.783C97.3112 142.155 85.6518 131.841 71.3018 131.841C56.9518 131.841 45.2924 142.155 45.2924 162.783V247.986C44.844 268.614 97.3112 268.614 97.3112 247.986Z" fill="#EA83A3"/>
<path d="M70.8526 278.928C70.8526 261.887 65.9198 278.928 44.8433 278.928V247.986H96.862C97.3105 268.614 85.6511 278.928 70.8526 278.928Z" fill="#A5627A"/>
<path d="M76.2338 47.085C67.265 30.9412 10.3135 35.874 10.3135 35.874C10.3135 35.874 3.58689 93.7225 20.1791 102.691C32.7353 109.418 82.9603 60.0896 76.2338 47.085Z" fill="#FC97B2"/>
<path d="M65.4722 55.6061C60.0909 45.7405 24.6644 48.4311 24.6644 48.4311C24.6644 48.4311 20.6284 84.3061 30.9425 89.6874C38.5659 94.6202 69.5081 63.678 65.4722 55.6061Z" fill="#FFD7E4"/>
<path d="M213.455 102.245C229.599 93.7242 224.666 36.7727 224.666 36.7727C224.666 36.7727 166.369 30.0461 157.4 46.6383C150.674 59.1946 200.45 108.971 213.455 102.245Z" fill="#FC97B2"/>
<path d="M204.488 91.482C214.353 86.1007 211.663 51.1226 211.663 51.1226C211.663 51.1226 175.788 47.0867 169.958 57.4007C165.474 65.0242 196.416 95.5179 204.488 91.482Z" fill="#FFD7E4"/>
<path d="M213.904 135.428C213.904 198.209 170.406 209.868 117.042 209.868C63.6779 209.868 20.1794 198.209 20.1794 135.428C20.1794 72.6465 79.3732 27.8027 117.042 27.8027C154.711 27.8027 213.904 72.6465 213.904 135.428Z" fill="#FC97B2"/>
<path d="M167.715 173.096C167.715 202.244 144.845 198.657 117.042 198.657C89.2387 198.657 66.3684 201.796 66.3684 173.096C66.3684 143.948 89.2387 129.149 117.042 129.149C145.293 129.149 167.715 143.948 167.715 173.096Z" fill="#FFD7E4"/>
<path d="M94.6205 189.24C101.555 189.24 107.177 179.202 107.177 166.818C107.177 154.435 101.555 144.396 94.6205 144.396C87.6858 144.396 82.0642 154.435 82.0642 166.818C82.0642 179.202 87.6858 189.24 94.6205 189.24Z" fill="#BF7B90"/>
<path d="M139.912 189.24C146.847 189.24 152.469 179.202 152.469 166.818C152.469 154.435 146.847 144.396 139.912 144.396C132.978 144.396 127.356 154.435 127.356 166.818C127.356 179.202 132.978 189.24 139.912 189.24Z" fill="#BF7B90"/>
<path d="M117.042 75.3376C117.042 75.3376 106.28 39.0142 82.0642 32.2876C82.0642 32.2876 92.8267 26.0095 100.899 29.1486C100.899 29.1486 101.347 22.422 94.172 17.9376C94.172 17.9376 109.867 14.7986 117.491 25.5611C117.491 25.5611 118.388 13.9017 115.697 8.07202C115.697 8.07202 141.706 14.3501 147.985 35.8751C148.433 35.8751 122.424 43.947 117.042 75.3376Z" fill="#BF7B90"/>
<path d="M58.2971 138.567C64.4888 138.567 69.5081 129.532 69.5081 118.387C69.5081 107.242 64.4888 98.2073 58.2971 98.2073C52.1055 98.2073 47.0862 107.242 47.0862 118.387C47.0862 129.532 52.1055 138.567 58.2971 138.567Z" fill="#493B30"/>
<path d="M176.237 137.67C182.428 137.67 187.448 128.635 187.448 117.49C187.448 106.345 182.428 97.3103 176.237 97.3103C170.045 97.3103 165.026 106.345 165.026 117.49C165.026 128.635 170.045 137.67 176.237 137.67Z" fill="#493B30"/>
</svg>
