<svg width="68" height="68" viewBox="0 0 68 68" fill="none" xmlns="http://www.w3.org/2000/svg">
<rect width="68" height="68" rx="8.26168" fill="#19182A"/>
<path d="M45.3175 43.5256C45.0253 43.5244 44.7363 43.4653 44.4672 43.3515C44.198 43.2378 43.9541 43.0718 43.7496 42.8631C43.3383 42.4494 43.1074 41.8897 43.1074 41.3063C43.1074 40.7229 43.3383 40.1632 43.7496 39.7494C44.5709 38.929 45.2224 37.9548 45.667 36.8825C46.1115 35.8101 46.3403 34.6606 46.3403 33.4998C46.3403 32.339 46.1115 31.1895 45.667 30.1172C45.2224 29.0448 44.5709 28.0706 43.7496 27.2502C43.3878 26.8278 43.1988 26.2844 43.2202 25.7286C43.2417 25.1728 43.4721 24.6456 43.8654 24.2523C44.2587 23.859 44.7859 23.6286 45.3417 23.6071C45.8975 23.5856 46.4409 23.7747 46.8633 24.1365C49.3446 26.6209 50.7383 29.9886 50.7383 33.4998C50.7383 37.0111 49.3446 40.3788 46.8633 42.8631C46.4556 43.2792 45.9 43.5173 45.3175 43.5256Z" fill="white"/>
<path d="M36.1309 16.0101C35.7288 15.841 35.2855 15.7947 34.8571 15.8773C34.4287 15.9598 34.0344 16.1674 33.7238 16.4738L25.553 24.6667H19.8334C18.662 24.6667 17.5386 25.1321 16.7104 25.9603C15.8821 26.7886 15.4167 27.912 15.4167 29.0834V37.9167C15.4167 39.0881 15.8821 40.2115 16.7104 41.0398C17.5386 41.8681 18.662 42.3334 19.8334 42.3334H25.553L33.7238 50.5263C33.9302 50.731 34.1749 50.8929 34.444 51.0028C34.713 51.1127 35.0011 51.1684 35.2917 51.1667C35.5814 51.1742 35.8688 51.1137 36.1309 50.9901C36.5342 50.8244 36.8794 50.5431 37.1231 50.1815C37.3667 49.82 37.4979 49.3944 37.5001 48.9584V18.0417C37.4979 17.6057 37.3667 17.1802 37.1231 16.8186C36.8794 16.4571 36.5342 16.1757 36.1309 16.0101Z" fill="white"/>
</svg>
