<svg width="68" height="68" viewBox="0 0 68 68" fill="none" xmlns="http://www.w3.org/2000/svg">
<rect width="68" height="68" rx="8.26168" fill="#5D4FFF"/>
<path d="M53.1936 11.635H16.6067C12.0737 11.635 8.36279 15.346 8.36279 19.879V48.4861C8.36279 53.0191 12.0737 56.7301 16.6067 56.7301H53.1936C57.7266 56.7301 61.4376 53.0191 61.4376 48.4861V19.879C61.4376 15.346 57.7266 11.635 53.1936 11.635ZM57.9145 22.028H49.5238L55.6422 15.8509C55.9592 16.0447 56.2528 16.2796 56.5229 16.5438C57.4213 17.4422 57.9145 18.6224 57.9145 19.879V22.028ZM18.38 22.028L24.4866 15.1581H28.086L21.6799 22.028H18.38ZM32.9067 15.1581H42.8417L36.1127 22.028H26.5006L32.9067 15.1581ZM47.5157 15.1581H51.3675L44.568 22.028H41.045L47.6507 15.2872L47.5157 15.1581ZM13.2716 16.5497C14.17 15.6513 15.3502 15.1581 16.6067 15.1581H19.7716L13.665 22.028H11.88V19.8848C11.8858 18.6283 12.3791 17.448 13.2716 16.5497ZM56.5229 51.8213C55.6245 52.7197 54.4443 53.2129 53.1878 53.2129H16.6067C15.3561 53.2129 14.17 52.7197 13.2716 51.8213C12.3732 50.9229 11.88 49.7427 11.88 48.4861V25.5511H57.9087V48.4861C57.9145 49.7368 57.4213 50.9229 56.5229 51.8213Z" fill="white"/>
<path d="M27.5164 49.2476V29.3013L35.361 33.8284C36.2007 34.3157 36.4943 35.3903 36.0069 36.2358C35.5196 37.0755 34.445 37.3691 33.5995 36.8817L31.0394 35.402V43.141L37.7391 39.2715L37.2987 39.019C36.459 38.5317 36.1654 37.4571 36.6528 36.6116C37.1402 35.7719 38.2147 35.4784 39.0602 35.9657L44.7852 39.2715L27.5164 49.2476Z" fill="white"/>
</svg>
